<?xml version="1.0" encoding="UTF-8" standalone="no"?>
<!DOCTYPE svg PUBLIC "-//W3C//DTD SVG 1.1//EN"
 "http://www.w3.org/Graphics/SVG/1.1/DTD/svg11.dtd">
<!-- Generated by graphviz version 2.43.0 (0)
 -->
<!-- Title: DockerDeps Pages: 1 -->
<svg width="1265pt" height="900pt"
 viewBox="0.00 0.00 1265.00 899.75" xmlns="http://www.w3.org/2000/svg" xmlns:xlink="http://www.w3.org/1999/xlink">
<g id="graph0" class="graph" transform="scale(1 1) rotate(0) translate(4 895.75)">
<title>DockerDeps</title>
<polygon fill="white" stroke="transparent" points="-4,4 -4,-895.75 1261,-895.75 1261,4 -4,4"/>
<g id="clust1" class="cluster">
<title>clusterDockerfile</title>
<polygon fill="none" stroke="royalblue" points="358,-116 358,-812.75 796,-812.75 796,-116 358,-116"/>
<text text-anchor="middle" x="577" y="-797.55" font-family="Times,serif" font-size="14.00">docker/&lt;distro&gt;/Dockerfile</text>
</g>
<g id="clust2" class="cluster">
<title>clusterCache</title>
<polygon fill="none" stroke="royalblue" points="8,-8 8,-83 1125,-83 1125,-8 8,-8"/>
<text text-anchor="middle" x="566.5" y="-67.8" font-family="Times,serif" font-size="14.00">cache/&lt;distro&gt;/</text>
</g>
<!-- DISTRO_IMG -->
<g id="node1" class="node">
<title>DISTRO_IMG</title>
<path fill="royalblue" stroke="black" d="M525,-887.48C525,-889.28 503.49,-890.75 477,-890.75 450.51,-890.75 429,-889.28 429,-887.48 429,-887.48 429,-858.02 429,-858.02 429,-856.22 450.51,-854.75 477,-854.75 503.49,-854.75 525,-856.22 525,-858.02 525,-858.02 525,-887.48 525,-887.48"/>
<path fill="none" stroke="black" d="M525,-887.48C525,-885.67 503.49,-884.2 477,-884.2 450.51,-884.2 429,-885.67 429,-887.48"/>
<text text-anchor="middle" x="477" y="-869.05" font-family="Times,serif" font-size="14.00">&lt;distro&gt;:latest</text>
</g>
<!-- ENV_IMG -->
<g id="node5" class="node">
<title>ENV_IMG</title>
<path fill="royalblue" stroke="black" d="M608,-777.1C608,-779.74 576.18,-781.88 537,-781.88 497.82,-781.88 466,-779.74 466,-777.1 466,-777.1 466,-734.15 466,-734.15 466,-731.51 497.82,-729.37 537,-729.37 576.18,-729.37 608,-731.51 608,-734.15 608,-734.15 608,-777.1 608,-777.1"/>
<path fill="none" stroke="black" d="M608,-777.1C608,-774.47 576.18,-772.33 537,-772.33 497.82,-772.33 466,-774.47 466,-777.1"/>
<text text-anchor="middle" x="537" y="-759.42" font-family="Times,serif" font-size="14.00">squirrel3:&lt;distro&gt;_env</text>
<text text-anchor="middle" x="537" y="-744.42" font-family="Times,serif" font-size="14.00">env</text>
</g>
<!-- DISTRO_IMG&#45;&gt;ENV_IMG -->
<g id="edge10" class="edge">
<title>DISTRO_IMG&#45;&gt;ENV_IMG</title>
<path fill="none" stroke="black" d="M486.11,-854.26C494.85,-837.5 508.28,-811.73 519.15,-790.87"/>
<polygon fill="black" stroke="black" points="522.27,-792.46 523.79,-781.98 516.06,-789.23 522.27,-792.46"/>
</g>
<!-- PKG -->
<g id="node2" class="node">
<title>PKG</title>
<polygon fill="royalblue" stroke="black" points="650.5,-891.75 547.5,-891.75 543.5,-887.75 543.5,-853.75 646.5,-853.75 650.5,-857.75 650.5,-891.75"/>
<polyline fill="none" stroke="black" points="646.5,-887.75 543.5,-887.75 "/>
<polyline fill="none" stroke="black" points="646.5,-887.75 646.5,-853.75 "/>
<polyline fill="none" stroke="black" points="646.5,-887.75 650.5,-891.75 "/>
<text text-anchor="middle" x="597" y="-876.55" font-family="Times,serif" font-size="14.00">packages</text>
<text text-anchor="middle" x="597" y="-861.55" font-family="Times,serif" font-size="14.00">e.g. cmake, g++</text>
</g>
<!-- PKG&#45;&gt;ENV_IMG -->
<g id="edge11" class="edge">
<title>PKG&#45;&gt;ENV_IMG</title>
<path fill="none" stroke="black" stroke-dasharray="5,2" d="M587.49,-853.51C578.78,-836.79 565.65,-811.61 554.97,-791.1"/>
<polygon fill="black" stroke="black" points="557.98,-789.31 550.26,-782.06 551.77,-792.54 557.98,-789.31"/>
<text text-anchor="middle" x="594" y="-824.55" font-family="Times,serif" font-size="14.00">install</text>
</g>
<!-- SRC -->
<g id="node3" class="node">
<title>SRC</title>
<polygon fill="royalblue" stroke="black" points="863.5,-773.62 860.5,-777.62 839.5,-777.62 836.5,-773.62 804.5,-773.62 804.5,-737.62 863.5,-737.62 863.5,-773.62"/>
<text text-anchor="middle" x="834" y="-751.92" font-family="Times,serif" font-size="14.00">git repo</text>
</g>
<!-- DEVEL_IMG -->
<g id="node6" class="node">
<title>DEVEL_IMG</title>
<path fill="royalblue" stroke="black" d="M748,-673.85C748,-676.49 713.94,-678.63 672,-678.63 630.06,-678.63 596,-676.49 596,-673.85 596,-673.85 596,-630.9 596,-630.9 596,-628.26 630.06,-626.12 672,-626.12 713.94,-626.12 748,-628.26 748,-630.9 748,-630.9 748,-673.85 748,-673.85"/>
<path fill="none" stroke="black" d="M748,-673.85C748,-671.22 713.94,-669.08 672,-669.08 630.06,-669.08 596,-671.22 596,-673.85"/>
<text text-anchor="middle" x="672" y="-656.17" font-family="Times,serif" font-size="14.00">squirrel3:&lt;distro&gt;_devel</text>
<text text-anchor="middle" x="672" y="-641.17" font-family="Times,serif" font-size="14.00">devel</text>
</g>
<!-- SRC&#45;&gt;DEVEL_IMG -->
<g id="edge12" class="edge">
<title>SRC&#45;&gt;DEVEL_IMG</title>
<path fill="none" stroke="black" stroke-dasharray="5,2" d="M811.55,-737.55C807.74,-734.79 803.79,-732.02 800,-729.5 776.04,-713.58 748.72,-697.11 725.49,-683.59"/>
<polygon fill="black" stroke="black" points="727.21,-680.54 716.81,-678.55 723.7,-686.59 727.21,-680.54"/>
<text text-anchor="middle" x="782.5" y="-700.3" font-family="Times,serif" font-size="14.00">copy</text>
</g>
<!-- SPL -->
<g id="node4" class="node">
<title>SPL</title>
<polygon fill="royalblue" stroke="black" points="427.5,-477.88 424.5,-481.88 403.5,-481.88 400.5,-477.88 366.5,-477.88 366.5,-441.88 427.5,-441.88 427.5,-477.88"/>
<text text-anchor="middle" x="397" y="-456.18" font-family="Times,serif" font-size="14.00">samples</text>
</g>
<!-- INSTALL_DEVEL_IMG -->
<g id="node10" class="node">
<title>INSTALL_DEVEL_IMG</title>
<path fill="royalblue" stroke="black" d="M594.5,-378.1C594.5,-380.74 551.7,-382.88 499,-382.88 446.3,-382.88 403.5,-380.74 403.5,-378.1 403.5,-378.1 403.5,-335.15 403.5,-335.15 403.5,-332.51 446.3,-330.37 499,-330.37 551.7,-330.37 594.5,-332.51 594.5,-335.15 594.5,-335.15 594.5,-378.1 594.5,-378.1"/>
<path fill="none" stroke="black" d="M594.5,-378.1C594.5,-375.47 551.7,-373.33 499,-373.33 446.3,-373.33 403.5,-375.47 403.5,-378.1"/>
<text text-anchor="middle" x="499" y="-360.43" font-family="Times,serif" font-size="14.00">squirrel3:&lt;distro&gt;_install_devel</text>
<text text-anchor="middle" x="499" y="-345.43" font-family="Times,serif" font-size="14.00">install_devel</text>
</g>
<!-- SPL&#45;&gt;INSTALL_DEVEL_IMG -->
<g id="edge7" class="edge">
<title>SPL&#45;&gt;INSTALL_DEVEL_IMG</title>
<path fill="none" stroke="black" stroke-dasharray="5,2" d="M414.3,-441.7C428.53,-427.58 449.08,-407.18 466.38,-390.01"/>
<polygon fill="black" stroke="black" points="468.93,-392.4 473.56,-382.87 464,-387.44 468.93,-392.4"/>
<text text-anchor="middle" x="467.5" y="-404.55" font-family="Times,serif" font-size="14.00">copy</text>
</g>
<!-- ENV_IMG&#45;&gt;DEVEL_IMG -->
<g id="edge1" class="edge">
<title>ENV_IMG&#45;&gt;DEVEL_IMG</title>
<path fill="none" stroke="black" d="M570.72,-729.34C588.68,-715.87 610.94,-699.17 630.01,-684.87"/>
<polygon fill="black" stroke="black" points="632.34,-687.49 638.24,-678.69 628.14,-681.89 632.34,-687.49"/>
</g>
<!-- INSTALL_ENV_IMG -->
<g id="node9" class="node">
<title>INSTALL_ENV_IMG</title>
<path fill="royalblue" stroke="black" d="M628,-481.35C628,-483.99 587.21,-486.13 537,-486.13 486.79,-486.13 446,-483.99 446,-481.35 446,-481.35 446,-438.4 446,-438.4 446,-435.76 486.79,-433.62 537,-433.62 587.21,-433.62 628,-435.76 628,-438.4 628,-438.4 628,-481.35 628,-481.35"/>
<path fill="none" stroke="black" d="M628,-481.35C628,-478.72 587.21,-476.58 537,-476.58 486.79,-476.58 446,-478.72 446,-481.35"/>
<text text-anchor="middle" x="537" y="-463.68" font-family="Times,serif" font-size="14.00">squirrel3:&lt;distro&gt;_install_env</text>
<text text-anchor="middle" x="537" y="-448.68" font-family="Times,serif" font-size="14.00">install_env</text>
</g>
<!-- ENV_IMG&#45;&gt;INSTALL_ENV_IMG -->
<g id="edge4" class="edge">
<title>ENV_IMG&#45;&gt;INSTALL_ENV_IMG</title>
<path fill="none" stroke="black" d="M537,-729.33C537,-676.94 537,-556.49 537,-496.37"/>
<polygon fill="black" stroke="black" points="540.5,-496.22 537,-486.22 533.5,-496.22 540.5,-496.22"/>
</g>
<!-- ENV_TAR -->
<g id="node13" class="node">
<title>ENV_TAR</title>
<polygon fill="royalblue" stroke="black" points="106.5,-52 15.5,-52 15.5,-16 112.5,-16 112.5,-46 106.5,-52"/>
<polyline fill="none" stroke="black" points="106.5,-52 106.5,-46 "/>
<polyline fill="none" stroke="black" points="112.5,-46 106.5,-46 "/>
<text text-anchor="middle" x="64" y="-30.3" font-family="Times,serif" font-size="14.00">docker_env.tar</text>
</g>
<!-- ENV_IMG&#45;&gt;ENV_TAR -->
<g id="edge13" class="edge">
<title>ENV_IMG&#45;&gt;ENV_TAR</title>
<path fill="none" stroke="red" d="M465.87,-753.89C334.48,-750.59 67,-733.97 67,-653.38 67,-653.38 67,-653.38 67,-149.12 67,-119.35 65.97,-85.23 65.11,-62.11"/>
<polygon fill="red" stroke="red" points="68.61,-61.87 64.73,-52.01 61.61,-62.14 68.61,-61.87"/>
<text text-anchor="middle" x="136.5" y="-404.55" font-family="Times,serif" font-size="14.00">make save_&lt;distro&gt;_env</text>
</g>
<!-- BUILD_IMG -->
<g id="node7" class="node">
<title>BUILD_IMG</title>
<path fill="royalblue" stroke="black" d="M788,-584.6C788,-587.24 754.38,-589.38 713,-589.38 671.62,-589.38 638,-587.24 638,-584.6 638,-584.6 638,-541.65 638,-541.65 638,-539.01 671.62,-536.87 713,-536.87 754.38,-536.87 788,-539.01 788,-541.65 788,-541.65 788,-584.6 788,-584.6"/>
<path fill="none" stroke="black" d="M788,-584.6C788,-581.97 754.38,-579.83 713,-579.83 671.62,-579.83 638,-581.97 638,-584.6"/>
<text text-anchor="middle" x="713" y="-566.92" font-family="Times,serif" font-size="14.00">squirrel3:&lt;distro&gt;_build</text>
<text text-anchor="middle" x="713" y="-551.92" font-family="Times,serif" font-size="14.00">build</text>
</g>
<!-- DEVEL_IMG&#45;&gt;BUILD_IMG -->
<g id="edge2" class="edge">
<title>DEVEL_IMG&#45;&gt;BUILD_IMG</title>
<path fill="none" stroke="black" d="M683.86,-626.14C687.9,-617.55 692.48,-607.79 696.8,-598.6"/>
<polygon fill="black" stroke="black" points="700.08,-599.84 701.17,-589.3 693.75,-596.87 700.08,-599.84"/>
</g>
<!-- DEVEL_TAR -->
<g id="node14" class="node">
<title>DEVEL_TAR</title>
<polygon fill="royalblue" stroke="black" points="231.5,-52 130.5,-52 130.5,-16 237.5,-16 237.5,-46 231.5,-52"/>
<polyline fill="none" stroke="black" points="231.5,-52 231.5,-46 "/>
<polyline fill="none" stroke="black" points="237.5,-46 231.5,-46 "/>
<text text-anchor="middle" x="184" y="-30.3" font-family="Times,serif" font-size="14.00">docker_devel.tar</text>
</g>
<!-- DEVEL_IMG&#45;&gt;DEVEL_TAR -->
<g id="edge14" class="edge">
<title>DEVEL_IMG&#45;&gt;DEVEL_TAR</title>
<path fill="none" stroke="red" d="M595.84,-651.89C468.45,-650.68 226,-638.59 226,-564.12 226,-564.12 226,-564.12 226,-149.12 226,-117.35 211.48,-83.49 199.52,-60.98"/>
<polygon fill="red" stroke="red" points="202.5,-59.13 194.6,-52.07 196.37,-62.52 202.5,-59.13"/>
<text text-anchor="middle" x="300" y="-352.93" font-family="Times,serif" font-size="14.00">make save_&lt;distro&gt;_devel</text>
</g>
<!-- TEST_IMG -->
<g id="node8" class="node">
<title>TEST_IMG</title>
<path fill="royalblue" stroke="black" d="M787.5,-481.35C787.5,-483.99 755.9,-486.13 717,-486.13 678.1,-486.13 646.5,-483.99 646.5,-481.35 646.5,-481.35 646.5,-438.4 646.5,-438.4 646.5,-435.76 678.1,-433.62 717,-433.62 755.9,-433.62 787.5,-435.76 787.5,-438.4 787.5,-438.4 787.5,-481.35 787.5,-481.35"/>
<path fill="none" stroke="black" d="M787.5,-481.35C787.5,-478.72 755.9,-476.58 717,-476.58 678.1,-476.58 646.5,-478.72 646.5,-481.35"/>
<text text-anchor="middle" x="717" y="-463.68" font-family="Times,serif" font-size="14.00">squirrel3:&lt;distro&gt;_test</text>
<text text-anchor="middle" x="717" y="-448.68" font-family="Times,serif" font-size="14.00">test</text>
</g>
<!-- BUILD_IMG&#45;&gt;TEST_IMG -->
<g id="edge3" class="edge">
<title>BUILD_IMG&#45;&gt;TEST_IMG</title>
<path fill="none" stroke="black" d="M714,-536.84C714.48,-524.63 715.07,-509.79 715.59,-496.47"/>
<polygon fill="black" stroke="black" points="719.1,-496.32 716,-486.19 712.11,-496.05 719.1,-496.32"/>
</g>
<!-- BUILD_IMG&#45;&gt;INSTALL_ENV_IMG -->
<g id="edge5" class="edge">
<title>BUILD_IMG&#45;&gt;INSTALL_ENV_IMG</title>
<path fill="none" stroke="black" stroke-dasharray="5,2" d="M669.04,-536.84C644.91,-522.95 614.82,-505.64 589.46,-491.05"/>
<polygon fill="black" stroke="black" points="591.12,-487.97 580.7,-486.02 587.63,-494.04 591.12,-487.97"/>
<text text-anchor="middle" x="667" y="-507.8" font-family="Times,serif" font-size="14.00">copy install</text>
</g>
<!-- BUILD_TAR -->
<g id="node15" class="node">
<title>BUILD_TAR</title>
<polygon fill="royalblue" stroke="black" points="1111,-52 1011,-52 1011,-16 1117,-16 1117,-46 1111,-52"/>
<polyline fill="none" stroke="black" points="1111,-52 1111,-46 "/>
<polyline fill="none" stroke="black" points="1117,-46 1111,-46 "/>
<text text-anchor="middle" x="1064" y="-30.3" font-family="Times,serif" font-size="14.00">docker_build.tar</text>
</g>
<!-- BUILD_IMG&#45;&gt;BUILD_TAR -->
<g id="edge15" class="edge">
<title>BUILD_IMG&#45;&gt;BUILD_TAR</title>
<path fill="none" stroke="red" d="M788.14,-558.23C903.23,-550.18 1110,-526.58 1110,-460.88 1110,-460.88 1110,-460.88 1110,-149.12 1110,-117.02 1094.15,-83.28 1081.05,-60.88"/>
<polygon fill="red" stroke="red" points="1084.03,-59.04 1075.85,-52.31 1078.04,-62.67 1084.03,-59.04"/>
<text text-anchor="middle" x="1183.5" y="-301.3" font-family="Times,serif" font-size="14.00">make save_&lt;distro&gt;_build</text>
</g>
<!-- TEST_TAR -->
<g id="node16" class="node">
<title>TEST_TAR</title>
<polygon fill="royalblue" stroke="black" points="986.5,-52 895.5,-52 895.5,-16 992.5,-16 992.5,-46 986.5,-52"/>
<polyline fill="none" stroke="black" points="986.5,-52 986.5,-46 "/>
<polyline fill="none" stroke="black" points="992.5,-46 986.5,-46 "/>
<text text-anchor="middle" x="944" y="-30.3" font-family="Times,serif" font-size="14.00">docker_test.tar</text>
</g>
<!-- TEST_IMG&#45;&gt;TEST_TAR -->
<g id="edge16" class="edge">
<title>TEST_IMG&#45;&gt;TEST_TAR</title>
<path fill="none" stroke="red" d="M787.58,-456.1C854.22,-449.24 944,-427.1 944,-357.62 944,-357.62 944,-357.62 944,-149.12 944,-119.36 944,-85.24 944,-62.11"/>
<polygon fill="red" stroke="red" points="947.5,-62.01 944,-52.01 940.5,-62.02 947.5,-62.01"/>
<text text-anchor="middle" x="1013" y="-249.68" font-family="Times,serif" font-size="14.00">make save_&lt;distro&gt;_test</text>
</g>
<!-- INSTALL_ENV_IMG&#45;&gt;INSTALL_DEVEL_IMG -->
<g id="edge6" class="edge">
<title>INSTALL_ENV_IMG&#45;&gt;INSTALL_DEVEL_IMG</title>
<path fill="none" stroke="black" d="M527.51,-433.59C522.84,-421.14 517.14,-405.95 512.06,-392.43"/>
<polygon fill="black" stroke="black" points="515.29,-391.07 508.5,-382.94 508.74,-393.53 515.29,-391.07"/>
</g>
<!-- INSTALL_ENV_TAR -->
<g id="node17" class="node">
<title>INSTALL_ENV_TAR</title>
<polygon fill="royalblue" stroke="black" points="871.5,-52 740.5,-52 740.5,-16 877.5,-16 877.5,-46 871.5,-52"/>
<polyline fill="none" stroke="black" points="871.5,-52 871.5,-46 "/>
<polyline fill="none" stroke="black" points="877.5,-46 871.5,-46 "/>
<text text-anchor="middle" x="809" y="-30.3" font-family="Times,serif" font-size="14.00">docker_install_env.tar</text>
</g>
<!-- INSTALL_ENV_IMG&#45;&gt;INSTALL_ENV_TAR -->
<g id="edge17" class="edge">
<title>INSTALL_ENV_IMG&#45;&gt;INSTALL_ENV_TAR</title>
<path fill="none" stroke="red" d="M559.98,-433.45C620.07,-366.88 777.74,-191.5 785,-176.25 802.43,-139.6 807.39,-92.29 808.7,-62.8"/>
<polygon fill="red" stroke="red" points="812.21,-62.54 809.04,-52.43 805.21,-62.31 812.21,-62.54"/>
<text text-anchor="middle" x="832" y="-249.68" font-family="Times,serif" font-size="14.00">make save_&lt;distro&gt;_install_env</text>
</g>
<!-- INSTALL_BUILD_IMG -->
<g id="node11" class="node">
<title>INSTALL_BUILD_IMG</title>
<path fill="royalblue" stroke="black" d="M618,-274.85C618,-277.49 575.42,-279.63 523,-279.63 470.58,-279.63 428,-277.49 428,-274.85 428,-274.85 428,-231.9 428,-231.9 428,-229.26 470.58,-227.12 523,-227.12 575.42,-227.12 618,-229.26 618,-231.9 618,-231.9 618,-274.85 618,-274.85"/>
<path fill="none" stroke="black" d="M618,-274.85C618,-272.22 575.42,-270.08 523,-270.08 470.58,-270.08 428,-272.22 428,-274.85"/>
<text text-anchor="middle" x="523" y="-257.18" font-family="Times,serif" font-size="14.00">squirrel3:&lt;distro&gt;_install_build</text>
<text text-anchor="middle" x="523" y="-242.18" font-family="Times,serif" font-size="14.00">install_build</text>
</g>
<!-- INSTALL_DEVEL_IMG&#45;&gt;INSTALL_BUILD_IMG -->
<g id="edge8" class="edge">
<title>INSTALL_DEVEL_IMG&#45;&gt;INSTALL_BUILD_IMG</title>
<path fill="none" stroke="black" d="M504.99,-330.34C507.92,-318.01 511.48,-302.99 514.66,-289.57"/>
<polygon fill="black" stroke="black" points="518.1,-290.23 517,-279.69 511.29,-288.62 518.1,-290.23"/>
</g>
<!-- INSTALL_DEVEL_TAR -->
<g id="node18" class="node">
<title>INSTALL_DEVEL_TAR</title>
<polygon fill="royalblue" stroke="black" points="396.5,-52 255.5,-52 255.5,-16 402.5,-16 402.5,-46 396.5,-52"/>
<polyline fill="none" stroke="black" points="396.5,-52 396.5,-46 "/>
<polyline fill="none" stroke="black" points="402.5,-46 396.5,-46 "/>
<text text-anchor="middle" x="329" y="-30.3" font-family="Times,serif" font-size="14.00">docker_install_devel.tar</text>
</g>
<!-- INSTALL_DEVEL_IMG&#45;&gt;INSTALL_DEVEL_TAR -->
<g id="edge18" class="edge">
<title>INSTALL_DEVEL_IMG&#45;&gt;INSTALL_DEVEL_TAR</title>
<path fill="none" stroke="red" d="M450.23,-330.37C408.55,-305.75 351.41,-264.04 326,-209.25 303.85,-161.49 313.2,-98.16 321.46,-62.48"/>
<polygon fill="red" stroke="red" points="324.96,-62.89 323.95,-52.35 318.16,-61.22 324.96,-62.89"/>
<text text-anchor="middle" x="420" y="-198.05" font-family="Times,serif" font-size="14.00">make save_&lt;distro&gt;_install_devel</text>
</g>
<!-- INSTALL_TEST_IMG -->
<g id="node12" class="node">
<title>INSTALL_TEST_IMG</title>
<path fill="royalblue" stroke="black" d="M547.5,-171.6C547.5,-174.24 506.94,-176.38 457,-176.38 407.06,-176.38 366.5,-174.24 366.5,-171.6 366.5,-171.6 366.5,-128.65 366.5,-128.65 366.5,-126.01 407.06,-123.87 457,-123.87 506.94,-123.87 547.5,-126.01 547.5,-128.65 547.5,-128.65 547.5,-171.6 547.5,-171.6"/>
<path fill="none" stroke="black" d="M547.5,-171.6C547.5,-168.97 506.94,-166.83 457,-166.83 407.06,-166.83 366.5,-168.97 366.5,-171.6"/>
<text text-anchor="middle" x="457" y="-153.93" font-family="Times,serif" font-size="14.00">squirrel3:&lt;distro&gt;_install_test</text>
<text text-anchor="middle" x="457" y="-138.93" font-family="Times,serif" font-size="14.00">install_test</text>
</g>
<!-- INSTALL_BUILD_IMG&#45;&gt;INSTALL_TEST_IMG -->
<g id="edge9" class="edge">
<title>INSTALL_BUILD_IMG&#45;&gt;INSTALL_TEST_IMG</title>
<path fill="none" stroke="black" d="M525.39,-227.23C525.3,-216.45 523.64,-204.09 518,-194.25 515.76,-190.35 513.01,-186.71 509.93,-183.34"/>
<polygon fill="black" stroke="black" points="512.34,-180.8 502.71,-176.38 507.48,-185.84 512.34,-180.8"/>
</g>
<!-- INSTALL_BUILD_TAR -->
<g id="node19" class="node">
<title>INSTALL_BUILD_TAR</title>
<polygon fill="royalblue" stroke="black" points="716,-52 576,-52 576,-16 722,-16 722,-46 716,-52"/>
<polyline fill="none" stroke="black" points="716,-52 716,-46 "/>
<polyline fill="none" stroke="black" points="722,-46 716,-46 "/>
<text text-anchor="middle" x="649" y="-30.3" font-family="Times,serif" font-size="14.00">docker_install_build.tar</text>
</g>
<!-- INSTALL_BUILD_IMG&#45;&gt;INSTALL_BUILD_TAR -->
<g id="edge19" class="edge">
<title>INSTALL_BUILD_IMG&#45;&gt;INSTALL_BUILD_TAR</title>
<path fill="none" stroke="red" d="M536.38,-226.99C551.05,-199.41 575.51,-154.18 598,-116 609,-97.33 622.03,-76.66 632.16,-60.88"/>
<polygon fill="red" stroke="red" points="635.28,-62.5 637.76,-52.2 629.4,-58.71 635.28,-62.5"/>
<text text-anchor="middle" x="691.5" y="-146.43" font-family="Times,serif" font-size="14.00">make save_&lt;distro&gt;_install_build</text>
</g>
<!-- INSTALL_TEST_TAR -->
<g id="node20" class="node">
<title>INSTALL_TEST_TAR</title>
<polygon fill="royalblue" stroke="black" points="551.5,-52 420.5,-52 420.5,-16 557.5,-16 557.5,-46 551.5,-52"/>
<polyline fill="none" stroke="black" points="551.5,-52 551.5,-46 "/>
<polyline fill="none" stroke="black" points="557.5,-46 551.5,-46 "/>
<text text-anchor="middle" x="489" y="-30.3" font-family="Times,serif" font-size="14.00">docker_install_test.tar</text>
</g>
<!-- INSTALL_TEST_IMG&#45;&gt;INSTALL_TEST_TAR -->
<g id="edge20" class="edge">
<title>INSTALL_TEST_IMG&#45;&gt;INSTALL_TEST_TAR</title>
<path fill="none" stroke="red" d="M403.4,-123.78C391.11,-114.45 383.77,-103.16 392,-91 397.37,-83.07 403.46,-87.33 412,-83 426.61,-75.6 442.06,-66.29 455.25,-57.84"/>
<polygon fill="red" stroke="red" points="457.51,-60.55 463.99,-52.17 453.7,-54.68 457.51,-60.55"/>
<text text-anchor="middle" x="481" y="-94.8" font-family="Times,serif" font-size="14.00">make save_&lt;distro&gt;_install_test</text>
</g>
</g>
</svg>
